<svg xmlns="http://www.w3.org/2000/svg" viewBox="0 0 2383.09 2102.95"><defs><style>.cls-1{fill:#fff;}</style></defs><title>Asset 2</title><g id="Layer_2" data-name="Layer 2"><g id="Capa_1" data-name="Capa 1"><path class="cls-1" d="M990,1716.9c-106.57,0-193,86.38-193,193s86.48,193,193,193,192.92-86.47,192.92-193S1096.58,1716.9,990,1716.9Z"/><path class="cls-1" d="M1771,1716.9c-106.62,0-193,86.38-193,193s86.33,193,193,193,193-86.47,193-193S1877.52,1716.9,1771,1716.9Z"/><path class="cls-1" d="M2262.56,659H852s-20.94-178.6-32.78-252.24c0-.09,0-.18-.05-.28a103.46,103.46,0,0,0-56.56-85.5L150.29,11.17A103.53,103.53,0,0,0,56.82,195.94l535.7,271C605,482,615.17,500,617.35,519.78,623.63,577,751,1521.3,751,1521.3s5.09,131.48,124.52,131.48H2012.11c100.28,0,119.78-104.78,119.78-104.78l237.39-705S2439.69,659,2262.56,659ZM2079.31,1055.4c-142.4,0-860-.42-860-.42-48.74,0-88.26,40.41-88.26,90.28,0,47.63,36.07,86.62,81.8,90,.5.18,811.15.26,811.15.26h2.21l-56.31,190H947.31L875.36,852.33h1264Z"/></g></g></svg>