<svg xmlns="http://www.w3.org/2000/svg" viewBox="0 0 326.57 116.39"><title>Asset 1</title><g id="Layer_2" data-name="Layer 2"><g id="Layer_1-2" data-name="Layer 1"><path d="M36,116.34q-14.6-.57-23.91-8a47.59,47.59,0,0,1-5-5,31.09,31.09,0,0,1-5.39-9.69C-1.77,83.14,0,69.29,6.94,54.1c5.9-13,15-25.91,30.9-43.78C40.18,7.69,47.16,0,47.2,0s-.36.66-.84,1.46a93.58,93.58,0,0,0-9.59,22.13C33.67,34.92,34,44.64,37.86,52.17A28,28,0,0,0,50.07,64.35C59,68.7,72,69.06,87.83,65.4c1.09-.25,55.25-14.63,120.36-31.95S326.57,2,326.57,2,175.32,66.73,96.79,100.31C84.35,105.63,81,107,75.18,109,60.23,114.27,46.85,116.77,36,116.34Z"/></g></g></svg>